
          <svg data-logo="logo" xmlns="http://www.w3.org/2000/svg" viewBox="0 0 41 41">
            <g id="logogram" transform="translate(0, 0) rotate(0)"><path d="M40.1718 40.7827V0.782715H18.5761L0.171762 19.1871L0.171753 40.7827H40.1718Z" fill="#2F2722"/><path fill-rule="evenodd" clip-rule="evenodd" d="M19.4821 27.3243L19.4821 39.4034L11.2062 39.4034L11.2062 23.8963L23.2854 11.8172L38.7924 11.8172L38.7924 20.093L26.7133 20.093L19.4821 27.3243Z" fill="#D62727"/><path fill-rule="evenodd" clip-rule="evenodd" d="M9.82693 23.1863L9.82692 39.4034L1.55106 39.4034L1.55106 19.7584L19.1474 2.162L38.7924 2.162L38.7924 10.4379L22.5754 10.4379L9.82693 23.1863Z" fill="#FFD43E"/><path fill-rule="evenodd" clip-rule="evenodd" d="M29.1373 31.4622L29.1373 39.4034L20.8614 39.4034L20.8614 28.0342L27.4233 21.4723L38.7924 21.4723L38.7924 29.7482L30.8513 29.7482L29.1373 31.4622Z" fill="#EA721B"/></g>
            <g id="logotype" transform="translate(41, 20.5)"></g>
            
          </svg>
        