
          <svg data-logo="logo" xmlns="http://www.w3.org/2000/svg" viewBox="0 0 248 43">
            <g id="logogram" transform="translate(0, 1) rotate(0)"><path d="M40.1718 40.7827V0.782715H18.5761L0.171762 19.1871L0.171753 40.7827H40.1718Z" fill="#2F2722"/><path fill-rule="evenodd" clip-rule="evenodd" d="M19.4821 27.3243L19.4821 39.4034L11.2062 39.4034L11.2062 23.8963L23.2854 11.8172L38.7924 11.8172L38.7924 20.093L26.7133 20.093L19.4821 27.3243Z" fill="#D62727"/><path fill-rule="evenodd" clip-rule="evenodd" d="M9.82693 23.1863L9.82692 39.4034L1.55106 39.4034L1.55106 19.7584L19.1474 2.162L38.7924 2.162L38.7924 10.4379L22.5754 10.4379L9.82693 23.1863Z" fill="#FFD43E"/><path fill-rule="evenodd" clip-rule="evenodd" d="M29.1373 31.4622L29.1373 39.4034L20.8614 39.4034L20.8614 28.0342L27.4233 21.4723L38.7924 21.4723L38.7924 29.7482L30.8513 29.7482L29.1373 31.4622Z" fill="#EA721B"/></g>
            <g id="logotype" transform="translate(47, 7.5)"><path fill="#111111" d="M19.37 28L8.07 28L8.07 23.27L10.76 23.27L10.76 8.15L8.07 8.15L8.07 3.43L19.37 3.43L19.37 8.15L16.68 8.15L16.68 23.27L19.37 23.27L19.37 28ZM29.94 28.25L29.94 28.25Q27.80 28.25 26.04 27.58Q24.27 26.91 23.08 25.71Q21.89 24.50 21.37 22.93L21.37 22.93L26.83 21.70Q27.07 22.71 27.89 23.29Q28.72 23.87 29.91 23.87L29.91 23.87Q31.06 23.87 31.69 23.40Q32.32 22.93 32.32 22.26L32.32 22.26Q32.32 21.45 31.55 21.05Q30.78 20.65 29.54 20.37Q28.30 20.09 26.93 19.77Q25.57 19.46 24.34 18.85Q23.12 18.23 22.35 17.15Q21.58 16.06 21.58 14.31L21.58 14.31Q21.58 12.63 22.50 11.27Q23.43 9.90 25.20 9.06Q26.97 8.22 29.52 8.22L29.52 8.22Q31.66 8.22 33.28 8.89Q34.91 9.55 35.98 10.73Q37.05 11.90 37.50 13.51L37.50 13.51L32.29 14.87Q32.08 13.82 31.34 13.23Q30.61 12.63 29.38 12.63L29.38 12.63Q28.26 12.63 27.70 13.05Q27.14 13.47 27.14 14.17L27.14 14.17Q27.14 14.94 27.91 15.38Q28.68 15.82 29.91 16.10Q31.13 16.38 32.50 16.75Q33.86 17.11 35.09 17.74Q36.31 18.38 37.08 19.49Q37.85 20.61 37.85 22.40L37.85 22.40Q37.85 24.08 36.89 25.41Q35.93 26.74 34.14 27.49Q32.36 28.25 29.94 28.25ZM45.90 28L39.99 28L39.99 2.10L45.90 2.10L45.90 12.63Q46.32 11.27 47.27 10.29Q48.21 9.31 49.45 8.77Q50.70 8.22 52.03 8.22L52.03 8.22Q54.27 8.22 55.91 9.24Q57.56 10.25 58.47 12.11Q59.38 13.96 59.38 16.52L59.38 16.52L59.38 28L53.46 28L53.46 17.50Q53.46 15.50 52.45 14.37Q51.43 13.23 49.72 13.23L49.72 13.23Q48.56 13.23 47.70 13.82Q46.85 14.42 46.37 15.47Q45.90 16.52 45.90 17.85L45.90 17.85L45.90 28ZM69.60 28.25L69.60 28.25Q67.04 28.25 65.13 26.91Q63.23 25.59 62.19 23.33Q61.16 21.07 61.16 18.23L61.16 18.23Q61.16 15.43 62.19 13.16Q63.23 10.88 65.13 9.55Q67.04 8.22 69.60 8.22L69.60 8.22Q71.84 8.22 73.50 9.43Q75.16 10.64 75.83 12.81L75.83 12.81L75.83 8.47L81.74 8.47L81.74 28L78.84 28Q77.44 28 76.63 27.21Q75.83 26.43 75.83 25.02L75.83 25.02L75.83 23.70Q75.16 25.83 73.50 27.04Q71.84 28.25 69.60 28.25ZM71.52 23.06L71.52 23.06Q72.68 23.06 73.66 22.50Q74.64 21.95 75.23 20.86Q75.83 19.77 75.83 18.23L75.83 18.23Q75.83 16.73 75.23 15.64Q74.64 14.56 73.66 13.96Q72.68 13.37 71.52 13.37L71.52 13.37Q70.33 13.37 69.35 13.96Q68.37 14.56 67.79 15.64Q67.22 16.73 67.22 18.23L67.22 18.23Q67.22 19.77 67.79 20.86Q68.37 21.95 69.37 22.50Q70.37 23.06 71.52 23.06ZM90.81 28L84.89 28L84.89 2.10L90.81 2.10L90.81 16.10Q92.42 15.75 93.87 14.66Q95.32 13.58 96.37 11.97Q97.42 10.36 97.81 8.47L97.81 8.47L104.07 8.47Q103.55 10.64 102.29 12.60Q101.03 14.56 99.36 16.03Q97.70 17.50 95.85 18.27L95.85 18.27Q97.28 18.62 98.65 19.56Q100.01 20.51 101.18 21.82Q102.36 23.13 103.18 24.73Q104.00 26.32 104.32 28L104.32 28L97.98 28Q97.67 26.50 96.97 25.22Q96.27 23.94 95.30 22.99Q94.34 22.05 93.19 21.45Q92.03 20.86 90.81 20.68L90.81 20.68L90.81 28ZM105.12 7.70L104.63-0.00L109.53-0.00L109.11 7.70L105.12 7.70ZM119.44 28.25L119.44 28.25Q117.30 28.25 115.53 27.58Q113.77 26.91 112.58 25.71Q111.39 24.50 110.86 22.93L110.86 22.93L116.32 21.70Q116.57 22.71 117.39 23.29Q118.21 23.87 119.40 23.87L119.40 23.87Q120.56 23.87 121.19 23.40Q121.82 22.93 121.82 22.26L121.82 22.26Q121.82 21.45 121.05 21.05Q120.28 20.65 119.03 20.37Q117.79 20.09 116.43 19.77Q115.06 19.46 113.84 18.85Q112.61 18.23 111.84 17.15Q111.07 16.06 111.07 14.31L111.07 14.31Q111.07 12.63 112.00 11.27Q112.93 9.90 114.69 9.06Q116.46 8.22 119.02 8.22L119.02 8.22Q121.15 8.22 122.78 8.89Q124.41 9.55 125.47 10.73Q126.54 11.90 127.00 13.51L127.00 13.51L121.78 14.87Q121.57 13.82 120.84 13.23Q120.10 12.63 118.88 12.63L118.88 12.63Q117.76 12.63 117.20 13.05Q116.64 13.47 116.64 14.17L116.64 14.17Q116.64 14.94 117.41 15.38Q118.18 15.82 119.40 16.10Q120.63 16.38 121.99 16.75Q123.36 17.11 124.58 17.74Q125.81 18.38 126.58 19.49Q127.35 20.61 127.35 22.40L127.35 22.40Q127.35 24.08 126.38 25.41Q125.42 26.74 123.64 27.49Q121.85 28.25 119.44 28.25ZM144.92 28L135.75 28L135.75 3.43L144.92 3.43Q148.87 3.43 151.76 4.99Q154.65 6.54 156.22 9.29Q157.80 12.04 157.80 15.75L157.80 15.75Q157.80 19.35 156.22 22.12Q154.65 24.88 151.76 26.44Q148.87 28 144.92 28L144.92 28ZM141.66 8.50L141.66 22.89L144.57 22.89Q148.00 22.89 149.90 21.02Q151.81 19.14 151.81 15.75L151.81 15.75Q151.81 12.28 149.90 10.39Q148.00 8.50 144.57 8.50L144.57 8.50L141.66 8.50ZM169.45 28.25L169.45 28.25Q167.32 28.25 165.37 27.58Q163.43 26.91 161.94 25.64Q160.46 24.36 159.60 22.54Q158.74 20.72 158.74 18.38L158.74 18.38Q158.74 16.13 159.56 14.28Q160.39 12.42 161.80 11.06Q163.22 9.69 165.09 8.96Q166.97 8.22 169.07 8.22L169.07 8.22Q170.78 8.22 172.34 8.68Q173.90 9.13 175.14 10.01Q176.38 10.88 177.10 12.07Q177.82 13.26 177.82 14.73L177.82 14.73Q177.82 16.59 176.77 17.81Q175.72 19.04 174.02 19.74Q172.32 20.44 170.31 20.74Q168.30 21.04 166.34 21L166.34 21Q166.09 21 165.76 20.98Q165.43 20.96 165.15 20.95Q164.87 20.93 164.73 20.93L164.73 20.93Q164.94 21.73 165.62 22.38Q166.30 23.03 167.35 23.41Q168.40 23.80 169.52 23.80L169.52 23.80Q170.64 23.80 171.67 23.41Q172.71 23.03 173.55 22.43Q174.39 21.84 174.98 21.11L174.98 21.11L178.76 24.08Q177.71 25.48 176.21 26.41Q174.70 27.34 172.97 27.79Q171.24 28.25 169.45 28.25ZM166.37 17.11L166.37 17.11Q167.32 17.11 168.33 17.01Q169.35 16.91 170.20 16.64Q171.06 16.38 171.60 15.91Q172.15 15.43 172.15 14.70L172.15 14.70Q172.15 14.10 171.73 13.65Q171.31 13.19 170.61 12.95Q169.91 12.70 169.10 12.70L169.10 12.70Q167.70 12.70 166.65 13.37Q165.60 14.03 165.04 15.03Q164.48 16.03 164.41 17.04L164.41 17.04Q164.73 17.08 165.27 17.10Q165.81 17.11 166.37 17.11ZM186.25 28L180.34 28L180.34 8.47L186.25 8.47L186.25 12.63Q186.67 11.27 187.62 10.29Q188.56 9.31 189.80 8.77Q191.05 8.22 192.38 8.22L192.38 8.22Q194.62 8.22 196.26 9.24Q197.91 10.25 198.82 12.11Q199.73 13.96 199.73 16.52L199.73 16.52L199.73 28L193.81 28L193.81 17.46Q193.81 15.47 192.80 14.31Q191.78 13.16 190.07 13.16L190.07 13.16Q188.91 13.16 188.05 13.77Q187.20 14.38 186.72 15.43Q186.25 16.48 186.25 17.81L186.25 17.81L186.25 28Z"/></g>
            
          </svg>
        